<svg width="512" height="512" viewBox="0 0 512 512" fill="none" xmlns="http://www.w3.org/2000/svg">
<rect width="512" height="512" rx="100" fill="white"/>
<path d="M248.75 100.447C253.391 103.127 256.25 108.079 256.25 113.438L256.25 247.671C256.25 253.03 253.391 257.982 248.75 260.662L147.5 319.119C137.5 324.892 125 317.675 125 306.128L125 54.9808C125 43.4337 137.5 36.2169 147.5 41.9904L248.75 100.447Z" fill="url(#paint0_linear_13_2)"/>
<path d="M263.5 411.662C258.859 408.982 256 404.03 256 398.671L256 264.437C256 259.078 258.859 254.127 263.5 251.447L364.75 192.99C374.75 187.217 387.25 194.434 387.25 205.981V457.128C387.25 468.675 374.75 475.892 364.75 470.118L263.5 411.662Z" fill="url(#paint1_linear_13_2)"/>
<defs>
<linearGradient id="paint0_linear_13_2" x1="190.625" y1="29" x2="190.625" y2="332.109" gradientUnits="userSpaceOnUse">
<stop stop-color="#2600FF"/>
<stop offset="0.85" stop-color="#FF00B7"/>
</linearGradient>
<linearGradient id="paint1_linear_13_2" x1="321.625" y1="483.109" x2="321.625" y2="180" gradientUnits="userSpaceOnUse">
<stop stop-color="#2600FF"/>
<stop offset="0.85" stop-color="#FF00B7"/>
</linearGradient>
</defs>
</svg>
